# xmcd
#
# Track frame offsets: 
#        150
#        9793
#        23196
#        35414
#        45764
#        60934
#        75620
#        90781
#        102300
#        115974
#        130223
#        144628
#        158137
#        173304
#        186630
#        201506
#        216862
#        231884
#        244775
#        259026
#        273334
#        284497
#        298847
#        313520
#        325730
#
# Disc length: 4680 seconds
#
# Revision: 1
# Processed by: cddbd v1.5.2PL0 Copyright (c) Steve Scherf et al.
# Submitted via: ExactAudioCopy v1.3
#
DISCID=57124619
DTITLE=Various Artist - Jazz Noire (Darktown Sleaze of 1940s L.A.)
DYEAR=2011
DGENRE=Jazz
TTITLE0=Adolph Deutsch - Theme from "High Sierra" (1941)
TTITLE1=The King Cole Trio - Gee, Baby, Ain't I Good To You?
TTITLE2=Dinah Washington with Lucky Thompson's All Stars - Pacific Coa
TTITLE2=st Blues
TTITLE3=Charles Brown Trio - How High The Moon
TTITLE4=Buddy Johnson and His Orchestra - Far Cry
TTITLE5=Julia Lee - Marijuana
TTITLE6=Louis Jordan and His Tympany Five - Why'd You Do It, Baby?
TTITLE7=Sarah Vaughan with Dizzy Gillespie and His Orchestra - Interlude
TTITLE8=Lester Young and His Sextet - No Eyes Blues
TTITLE9=Charlie Parker Quartet feat. Earl Coleman - Dark Shadows
TTITLE10=Billie Holiday with Eddie Heywood and His Trio - Billie's Blues
TTITLE11=Arthur Prysock with Buddy Johnson and His Orchestra - I Wonder 
TTITLE11=Where Our Love Has Gone
TTITLE12=Charlie Parker - Lover Man
TTITLE13=Billy Eckstine and His Orchestra - Prisoner Of Love
TTITLE14=Ella Johnson with Buddy Johnson and His Orchestra - Since I Fel
TTITLE14=l For You
TTITLE15=Cab Calloway and His Orchestra - San Francisco Fan
TTITLE16=Lionel Hampton and His Orchestra - Midnight Sun
TTITLE17=Etta James with JC Heard and His Orchestra - I Sold My Heart To
TTITLE17=The Junkman
TTITLE18=Al Hibbler with Harry Carney's All-Stars - I Got It Bad (And 
TTITLE18=That Ain't Good)
TTITLE19=Billie Holiday - Good Morning Heartache
TTITLE20=Illinois Jacquet and His All Stars - Goofin' Off
TTITLE21=Wynonie "Mr Blues" Harris and His All-Stars - Whiskey And Jelly
TTITLE21=Roll Blues
TTITLE22=Nellie Lutcher and Her Rhythm - Fine And Mellow
TTITLE23=Crown Prince Waterford - LA Blues
TTITLE24=Alfred Newman - Theme from "Cry Of The City" (1948)
EXTD=YEAR: 2011
EXTT0=
EXTT1=
EXTT2=
EXTT3=
EXTT4=
EXTT5=
EXTT6=
EXTT7=
EXTT8=
EXTT9=
EXTT10=
EXTT11=
EXTT12=
EXTT13=
EXTT14=
EXTT15=
EXTT16=
EXTT17=
EXTT18=
EXTT19=
EXTT20=
EXTT21=
EXTT22=
EXTT23=
EXTT24=
PLAYORDER=
